<?xml version="1.0" encoding="UTF-8"?>
<svg width="100px" height="100px" viewBox="0 0 100 100" version="1.1" xmlns="http://www.w3.org/2000/svg" xmlns:xlink="http://www.w3.org/1999/xlink">
    <title>Sunny Waves v1 Copy 8</title>
    <defs>
        <circle id="path-1" cx="50" cy="50" r="50"></circle>
    </defs>
    <g id="Logo" stroke="none" stroke-width="1" fill="none" fill-rule="evenodd">
        <g id="Logos" transform="translate(-927.000000, -939.000000)">
            <g id="Sunny-Waves-v1-Copy-8" transform="translate(927.000000, 939.000000)">
                <mask id="mask-2" fill="white">
                    <use xlink:href="#path-1"></use>
                </mask>
                <use id="Mask" fill="#FFFFFF" xlink:href="#path-1"></use>
                <g id="Sunny-Waves-v1-Copy" mask="url(#mask-2)">
                    <g transform="translate(-27.393617, 32.180851)">
                        <g id="Lsnding_BG" stroke="none" stroke-width="1" fill-rule="evenodd" transform="translate(44.946809, 0.000000)">
                            <circle id="Oval" fill="#E15E57" cx="31.9148936" cy="31.9148936" r="31.9148936"></circle>
                        </g>
                        <path d="M10.106383,34.5744681 L23.4764568,41.0098553 C30.7432111,44.5075455 39.2045237,44.5190195 46.4807373,41.0410501 L48.3652643,40.140262 C55.7180167,36.6257077 64.276244,36.6762273 71.5869924,40.2773409 L72.7286177,40.8396804 C80.0393661,44.440794 88.5975933,44.4913136 95.9503458,40.9767593 L97.7003706,40.140262 C105.053123,36.6257077 113.61135,36.6762273 120.922099,40.2773409 L121.492911,40.5585106 C129.090436,44.3008837 138.049388,44.0316333 145.408458,39.8397579 L154.651967,34.5744681 L154.651967,34.5744681" id="Line-2-Copy-3" stroke="#102443" stroke-width="20.7446809" stroke-linecap="square" transform="translate(82.379175, 40.558511) rotate(-180.000000) translate(-82.379175, -40.558511) "></path>
                        <path d="M1.20943444e-13,44.4148936 L13.3700738,50.8502808 C20.6368281,54.3479711 29.0981407,54.359445 36.3743544,50.8814757 L38.2588813,49.9806875 C45.6116338,46.4661332 54.169861,46.5166528 61.4806094,50.1177664 L62.6222347,50.6801059 C69.9329831,54.2812195 78.4912103,54.3317391 85.8439628,50.8171848 L87.5939877,49.9806875 C94.9467402,46.4661332 103.504967,46.5166528 110.815716,50.1177664 L111.386528,50.3989362 C118.984053,54.1413093 127.943005,53.8720588 135.302075,49.6801835 L144.545584,44.4148936 L144.545584,44.4148936" id="Line-2-Copy-4" stroke="#224E8F" stroke-width="20.7446809" stroke-linecap="square" transform="translate(72.272792, 50.398936) rotate(-360.000000) translate(-72.272792, -50.398936) "></path>
                        <path d="M10.106383,55.8510638 L23.4764568,62.286451 C30.7432111,65.7841413 39.2045237,65.7956152 46.4807373,62.3176459 L48.3652643,61.4168578 C55.7180167,57.9023035 64.276244,57.9528231 71.5869924,61.5539366 L72.7286177,62.1162761 C80.0393661,65.7173897 88.5975933,65.7679093 95.9503458,62.253355 L97.7003706,61.4168578 C105.053123,57.9023035 113.61135,57.9528231 120.922099,61.5539366 L121.492911,61.8351064 C129.090436,65.5774795 138.049388,65.3082291 145.408458,61.1163537 L154.651967,55.8510638 L154.651967,55.8510638" id="Line-2-Copy-5" stroke="#3270CF" stroke-width="20.7446809" stroke-linecap="square" transform="translate(82.379175, 61.835106) rotate(-180.000000) translate(-82.379175, -61.835106) "></path>
                    </g>
                </g>
            </g>
        </g>
    </g>
</svg>